<svg xmlns="http://www.w3.org/2000/svg" viewBox="0 0 1280 320" role="img" aria-labelledby="title desc">
  <title id="title">Bright morning sky</title>
  <desc id="desc">A clear pale blue sky with soft sunlit clouds.</desc>
  <defs>
    <linearGradient id="sky" x1="0" y1="0" x2="1" y2="1">
      <stop offset="0" stop-color="#74c8f5"/>
      <stop offset="0.52" stop-color="#ccecff"/>
      <stop offset="1" stop-color="#fff4dc"/>
    </linearGradient>
    <radialGradient id="light" cx="87%" cy="28%" r="58%">
      <stop offset="0" stop-color="#fff" stop-opacity=".92"/>
      <stop offset=".48" stop-color="#fff8e8" stop-opacity=".34"/>
      <stop offset="1" stop-color="#fff" stop-opacity="0"/>
    </radialGradient>
    <linearGradient id="cloud" x1="0" y1="0" x2="0" y2="1">
      <stop offset="0" stop-color="#fff" stop-opacity=".94"/>
      <stop offset="1" stop-color="#eef7fc" stop-opacity=".58"/>
    </linearGradient>
    <filter id="blur" x="-20%" y="-40%" width="140%" height="180%">
      <feGaussianBlur stdDeviation="6"/>
    </filter>
  </defs>
  <rect width="1280" height="320" rx="18" fill="url(#sky)"/>
  <rect width="1280" height="320" rx="18" fill="url(#light)"/>
  <g fill="url(#cloud)" filter="url(#blur)">
    <path d="M-45 256c32-39 77-49 121-25 25-46 95-58 136-13 48-22 110 3 122 54H-45z"/>
    <path d="M198 100c19-25 51-28 74-8 17-34 71-34 91 0 33-8 64 11 70 40H185c0-13 5-24 13-32z" opacity=".72"/>
    <path d="M728 272c24-42 78-57 121-33 31-58 116-61 153-6 53-25 123 6 133 67H704c1-12 9-22 24-28z" opacity=".82"/>
    <path d="M1033 120c14-24 46-31 69-14 24-41 87-39 107 6 37-8 72 16 76 52h-278c1-20 10-35 26-44z" opacity=".58"/>
  </g>
  <g fill="#fff" opacity=".28">
    <ellipse cx="520" cy="240" rx="94" ry="12"/>
    <ellipse cx="615" cy="80" rx="65" ry="8"/>
  </g>
</svg>
